<?xml version="1.0" encoding="UTF-8"?> <!-- Creator: CorelDRAW X6 --> <svg xmlns="http://www.w3.org/2000/svg" xmlns:xlink="http://www.w3.org/1999/xlink" xml:space="preserve" width="38.8358mm" height="7.0895mm" style="shape-rendering:geometricPrecision; text-rendering:geometricPrecision; image-rendering:optimizeQuality; fill-rule:evenodd; clip-rule:evenodd" viewBox="0 0 3884 709"> <defs> <style type="text/css"> <![CDATA[ .fil1 {fill:#332C2B;fill-rule:nonzero} .fil0 {fill:#E94F3C;fill-rule:nonzero} ]]> </style> </defs> <g id="Layer_x0020_1"> <metadata id="CorelCorpID_0Corel-Layer"></metadata> <path class="fil0" d="M41 205c-23,0 -41,-18 -41,-41 0,-23 18,-41 41,-41l483 0c23,0 41,18 41,41 0,23 -18,41 -41,41l-483 0zm455 332c16,-15 42,-15 58,2 15,16 15,42 -2,58 -38,35 -81,64 -127,83 -45,19 -93,29 -143,29 -50,0 -98,-10 -143,-29 -46,-19 -89,-47 -127,-83 -16,-15 -17,-41 -2,-58 15,-16 41,-17 58,-2 31,29 65,52 102,67 35,15 73,22 112,22 39,0 77,-8 112,-22 37,-15 71,-38 102,-67zm11 -209c20,-10 45,-1 54,20 10,20 1,45 -20,54 -37,17 -79,31 -123,41 -43,9 -89,14 -136,14 -47,0 -93,-5 -136,-14 -45,-9 -86,-23 -123,-41 -20,-10 -29,-34 -20,-54 10,-20 34,-29 54,-20 31,15 67,26 105,34 37,8 77,12 119,12 42,0 82,-4 119,-12 38,-8 74,-20 105,-34z"></path> <path class="fil1" d="M1212 295c-20,-12 -42,-22 -65,-29 -24,-7 -46,-11 -68,-11 -25,0 -45,5 -61,14 -15,9 -23,24 -23,43 0,19 9,34 26,44 17,10 43,20 78,30 33,10 60,19 81,29 21,10 39,24 54,42 15,19 22,43 22,74 0,45 -17,79 -51,103 -34,23 -76,35 -126,35 -35,0 -70,-6 -103,-17 -33,-11 -61,-28 -84,-49l31 -61c20,18 44,32 73,43 29,11 57,16 85,16 28,0 50,-5 67,-15 17,-10 25,-26 25,-47 0,-22 -9,-38 -27,-49 -18,-11 -45,-22 -80,-32 -32,-9 -58,-18 -78,-27 -20,-9 -37,-23 -51,-41 -14,-18 -21,-41 -21,-70 0,-44 16,-78 49,-100 32,-22 73,-33 121,-33 29,0 57,4 85,12 28,8 52,19 72,33l-31 64zm565 -3c16,-34 38,-60 67,-78 29,-18 63,-27 103,-27l0 81c-49,-2 -88,11 -118,38 -30,27 -47,63 -51,109l0 251 -84 0 0 -476 84 0 0 103zm1486 -103l84 0 0 476 -84 0 0 -476zm41 -190c15,0 27,5 37,15 10,10 15,23 15,39 0,16 -5,28 -15,39 -10,10 -22,15 -37,15 -15,0 -27,-5 -37,-15 -10,-10 -15,-23 -15,-39 0,-16 5,-28 15,-39 10,-10 22,-15 37,-15zm527 317c-38,-37 -83,-55 -136,-55 -31,0 -59,7 -83,21 -24,14 -43,33 -57,58 -14,25 -21,54 -21,87 0,33 7,62 20,87 13,25 32,45 56,59 24,14 51,21 81,21 31,0 58,-5 83,-15 25,-10 45,-25 61,-44l48 49c-22,27 -49,48 -82,62 -33,14 -71,22 -113,22 -46,0 -87,-10 -123,-31 -36,-20 -64,-49 -84,-85 -20,-36 -30,-78 -30,-125 0,-47 10,-88 30,-125 20,-37 48,-65 84,-85 36,-20 77,-31 123,-31 40,0 76,6 108,18 32,12 59,30 80,54l-46 58zm-2240 317c-37,23 -73,35 -110,35 -38,0 -69,-13 -93,-40 -24,-26 -36,-64 -36,-114l0 -437 84 0 0 128 147 0 0 64 -147 0 0 230c0,61 20,92 59,92 22,0 46,-7 73,-22l22 65zm888 -444l0 476 -84 0 0 -93c-18,31 -42,55 -72,72 -30,17 -65,25 -105,25 -45,0 -85,-10 -119,-31 -34,-21 -61,-49 -81,-86 -19,-37 -29,-79 -29,-126 0,-47 10,-88 29,-125 19,-36 46,-65 81,-85 35,-20 74,-31 119,-31 40,0 75,8 105,25 30,16 54,40 72,72l0 -93 84 0zm-244 408c44,0 81,-14 110,-42 29,-28 46,-64 50,-109l0 -36c-4,-45 -21,-82 -50,-110 -29,-28 -66,-42 -110,-42 -31,0 -59,7 -83,22 -24,15 -43,35 -57,61 -14,26 -21,55 -21,87 0,32 7,61 21,87 14,26 33,46 57,60 24,14 52,22 83,22zm598 36c-37,23 -73,35 -110,35 -38,0 -69,-13 -93,-40 -24,-26 -36,-64 -36,-114l0 -437 84 0 0 128 147 0 0 64 -147 0 0 230c0,61 20,92 59,92 22,0 46,-7 73,-22l22 65zm327 0c-37,23 -73,35 -110,35 -38,0 -69,-13 -93,-40 -24,-26 -36,-64 -36,-114l0 -437 84 0 0 128 147 0 0 64 -147 0 0 230c0,61 20,92 59,92 22,0 46,-7 73,-22l22 65z"></path> </g> </svg> 